#!OML:ASF Y:\EmotionMaleHayes\Project 1\Capture day 1\Session 1\Male1.ASF
:FULLY-SPECIFIED
:DEGREES
266
root -28.34 16.98 0.259275 79.5922 84.3676 73.3799
lowerback 7.28434 1.49445 -7.92279
upperback 1.46357 1.40629 -1.22047
thorax -2.72139 0.783504 3.04144
lowerneck -29.6836 2.98606 0.545379
upperneck 20.1148 5.06347 -4.1215
head 11.5605 1.75524 -0.713339
rclavicle -1.00487e-014 -3.35449e-016
rhumerus -37.4615 6.44523 -84.4012
rradius 34.9902
rwrist -6.46194
rhand -11.2564 -32.442
rfingers 7.12502
rthumb 14.7734 -61.8954
lclavicle -1.00487e-014 -3.35449e-016
lhumerus -13.0737 -28.0988 77.7275
lradius 53.2763
lwrist 9.18512
lhand -29.0033 -31.1976
lfingers 7.12502
lthumb -2.35493 -1.23082
rfemur -0.491913 -12.0382 12.7029
rtibia 19.0438
rfoot -29.1678 -17.0106
rtoes 17.0728
lfemur 8.33217 2.63657 -13.9643
ltibia 0.449723
lfoot -20.3509 12.6037
ltoes -28.506
267
root -28.2988 16.9464 0.301639 85.0887 83.7518 78.5454
lowerback 7.23808 1.3624 -8.32972
upperback 1.39326 1.20032 -1.32069
thorax -2.75123 0.688283 3.18476
lowerneck -29.8583 3.01544 0.31865
upperneck 19.98 5.20748 -4.15983
head 11.5392 1.79705 -0.663447
rclavicle 4.31114e-015 -6.55989e-015
rhumerus -37.0815 6.85162 -83.9765
rradius 35.6617
rwrist -6.87116
rhand -10.9896 -33.1141
rfingers 7.12502
rthumb 15.0305 -62.5485
lclavicle 4.31114e-015 -6.55989e-015
lhumerus -13.757 -27.4347 77.9236
lradius 53.7681
lwrist 9.01251
lhand -29.4533 -31.9308
lfingers 7.12502
lthumb -2.78952 -1.96927
rfemur 0.0511437 -12.1969 12.0889
rtibia 18.2836
rfoot -30.0267 -17.4817
rtoes 15.7588
lfemur 7.36928 4.20098 -14.0815
ltibia 1.84148
lfoot -20.1057 10.912
ltoes -29.874
268
root -28.2699 16.9067 0.337725 78.4708 83.2687 71.2769
lowerback 6.86141 1.62938 -8.36422
upperback 1.23841 1.57637 -1.4058
thorax -2.74539 0.877344 3.08312
lowerneck -30.034 3.02319 0.276682
upperneck 19.9012 5.28805 -4.3499
head 11.5486 1.80316 -0.711416
rclavicle 3.90115e-015 -3.77691e-015
rhumerus -36.7176 7.0598 -83.5864
rradius 36.4369
rwrist -7.08523
rhand -10.9042 -33.3624
rfingers 7.12502
rthumb 15.1128 -62.7907
lclavicle 3.90115e-015 -3.77691e-015
lhumerus -14.2963 -30.6792 76.9519
lradius 55.208
lwrist 12.3312
lhand -31.2318 -31.6902
lfingers 7.12502
lthumb -4.50699 -1.75816
rfemur -0.537933 -11.7111 12.0122
rtibia 18.3158
rfoot -30.4468 -17.431
rtoes 11.9528
lfemur 6.5243 5.23582 -14.2177
ltibia 2.79285
lfoot -20.0746 10.8869
ltoes -30.0049
269
root -28.2164 16.8944 0.380389 85.6957 83.1937 78.8313
lowerback 7.55499 1.42983 -8.12712
upperback 1.28715 1.26378 -1.42576
thorax -3.04054 0.730757 2.9483
lowerneck -30.1225 3.06484 0.456054
upperneck 19.9177 5.38368 -4.74604
head 11.594 1.8048 -0.86974
rclavicle 8.97016e-015 -1.15295e-014
rhumerus -36.5852 6.99376 -83.1975
rradius 37.2759
rwrist -7.11631
rhand -11.0172 -33.3916
rfingers 7.12502
rthumb 15.0039 -62.828
lclavicle 8.97016e-015 -1.15295e-014
lhumerus -15.038 -26.7957 78.0955
lradius 54.3378
lwrist 9.37972
lhand -30.8113 -33.3233
lfingers 7.12502
lthumb -4.10089 -3.38305
rfemur 0.935751 -11.6823 11.8126
rtibia 17.3012
rfoot -31.5142 -17.7142
rtoes 10.5818
lfemur 6.18354 5.36164 -14.0949
ltibia 4.17465
lfoot -20.1227 10.022
ltoes -29.968
270
root -28.1917 16.8643 0.425694 87.0939 83.0778 79.9475
lowerback 7.83581 1.43671 -7.81448
upperback 1.1129 1.25569 -1.50019
thorax -3.37129 0.737647 2.68935
lowerneck -29.9677 3.08583 0.599831
upperneck 19.7715 5.3938 -4.93659
head 11.5229 1.80136 -0.963006
rclavicle -7.00716e-015 -8.74653e-015
rhumerus -36.1274 7.05113 -82.9353
rradius 38.0091
rwrist -7.45928
rhand -11.2926 -33.9301
rfingers 7.12502
rthumb 14.7386 -63.3861
lclavicle -7.00716e-015 -8.74653e-015
lhumerus -15.8538 -27.6132 78.0552
lradius 54.51
lwrist 10.7602
lhand -31.7426 -34.0244
lfingers 7.12502
lthumb -5.0002 -4.10336
rfemur 1.23252 -11.1815 11.9959
rtibia 16.5598
rfoot -32.2793 -17.7766
rtoes 10.5603
lfemur 4.94754 6.39372 -13.798
ltibia 6.18517
lfoot -20.3742 9.1487
ltoes -29.9838
271
root -28.1061 16.8358 0.441467 73.7767 82.8235 66.3998
lowerback 7.17521 1.93244 -7.20673
upperback 1.18601 2.02469 -1.5301
thorax -2.98482 1.09616 2.25447
lowerneck -29.796 3.08832 0.604372
upperneck 19.6027 5.40784 -5.02247
head 11.4327 1.804 -0.993965
rclavicle 2.36057e-014 1.98785e-014
rhumerus -35.3291 7.59735 -82.6557
rradius 38.7212
rwrist -8.1429
rhand -11.7296 -34.6272
rfingers 7.12502
rthumb 14.3176 -64.1135
lclavicle 2.36057e-014 1.98785e-014
lhumerus -16.6408 -27.2559 78.3757
lradius 54.1914
lwrist 11.1975
lhand -32.2099 -34.8973
lfingers 7.12502
lthumb -5.45135 -4.98738
rfemur 1.42332 -10.542 12.0694
rtibia 15.9608
rfoot -31.9025 -16.9466
rtoes 7.83764
lfemur 4.77425 8.00081 -13.442
ltibia 7.56323
lfoot -20.831 9.26613
ltoes -29.3151
272
root -28.0545 16.8232 0.481589 76.3299 83.2572 69.0487
lowerback 7.49784 1.74974 -6.45452
upperback 1.27307 1.81948 -1.3609
thorax -3.03815 0.98588 2.02533
lowerneck -29.7808 3.10513 0.642277
upperneck 19.5918 5.44126 -5.1178
head 11.432 1.80986 -1.02944
rclavicle -6.90777e-015 -2.18663e-014
rhumerus -34.3866 8.24718 -82.3664
rradius 39.4957
rwrist -8.78821
rhand -12.182 -35.0218
rfingers 7.12502
rthumb 13.8816 -64.5385
lclavicle -6.90777e-015 -2.18663e-014
lhumerus -18.2536 -25.2503 78.9918
lradius 55.0686
lwrist 10.3232
lhand -32.297 -35.2166
lfingers 7.12502
lthumb -5.53551 -5.30895
rfemur 2.49903 -10.9082 12.4183
rtibia 14.7964
rfoot -31.5928 -16.8315
rtoes 6.58587
lfemur 3.64167 8.60694 -12.7225
ltibia 10.1843
lfoot -21.1142 8.43507
ltoes -28.3813
